<?xml version="1.0" encoding="utf-8" standalone="no"?>
<!DOCTYPE svg PUBLIC "-//W3C//DTD SVG 1.1//EN"
  "http://www.w3.org/Graphics/SVG/1.1/DTD/svg11.dtd">
<!-- Created with matplotlib (http://matplotlib.org/) -->
<svg height="277.573625pt" version="1.1" viewBox="0 0 384.603125 277.573625" width="384.603125pt" xmlns="http://www.w3.org/2000/svg" xmlns:xlink="http://www.w3.org/1999/xlink">
 <defs>
  <style type="text/css">
*{stroke-linecap:butt;stroke-linejoin:round;}
  </style>
 </defs>
 <g id="figure_1">
  <g id="patch_1">
   <path d="M 0 277.573625 
L 384.603125 277.573625 
L 384.603125 0 
L 0 0 
z
" style="fill:none;"/>
  </g>
  <g id="axes_1">
   <g id="patch_2">
    <path d="M 42.603125 241.58175 
L 377.403125 241.58175 
L 377.403125 24.14175 
L 42.603125 24.14175 
z
" style="fill:#eeeeee;"/>
   </g>
   <g id="matplotlib.axis_1">
    <g id="xtick_1">
     <g id="line2d_1">
      <path clip-path="url(#p6283a4b3ae)" d="M 88.25767 241.58175 
L 88.25767 24.14175 
" style="fill:none;stroke:#b2b2b2;stroke-dasharray:1.85,0.8;stroke-dashoffset:0;stroke-width:0.5;"/>
     </g>
     <g id="line2d_2">
      <defs>
       <path d="M 0 0 
L 0 -3.5 
" id="mbfd981e3cf" style="stroke:#000000;stroke-width:0.8;"/>
      </defs>
      <g>
       <use style="stroke:#000000;stroke-width:0.8;" x="88.25767" xlink:href="#mbfd981e3cf" y="241.58175"/>
      </g>
     </g>
     <g id="text_1">
      <!-- −4 -->
      <defs>
       <path d="M 10.59375 35.5 
L 73.1875 35.5 
L 73.1875 27.203125 
L 10.59375 27.203125 
z
" id="DejaVuSans-2212"/>
       <path d="M 37.796875 64.3125 
L 12.890625 25.390625 
L 37.796875 25.390625 
z
M 35.203125 72.90625 
L 47.609375 72.90625 
L 47.609375 25.390625 
L 58.015625 25.390625 
L 58.015625 17.1875 
L 47.609375 17.1875 
L 47.609375 0 
L 37.796875 0 
L 37.796875 17.1875 
L 4.890625 17.1875 
L 4.890625 26.703125 
z
" id="DejaVuSans-34"/>
      </defs>
      <g transform="translate(80.886577 252.680187)scale(0.1 -0.1)">
       <use xlink:href="#DejaVuSans-2212"/>
       <use x="83.789062" xlink:href="#DejaVuSans-34"/>
      </g>
     </g>
    </g>
    <g id="xtick_2">
     <g id="line2d_3">
      <path clip-path="url(#p6283a4b3ae)" d="M 149.130398 241.58175 
L 149.130398 24.14175 
" style="fill:none;stroke:#b2b2b2;stroke-dasharray:1.85,0.8;stroke-dashoffset:0;stroke-width:0.5;"/>
     </g>
     <g id="line2d_4">
      <g>
       <use style="stroke:#000000;stroke-width:0.8;" x="149.130398" xlink:href="#mbfd981e3cf" y="241.58175"/>
      </g>
     </g>
     <g id="text_2">
      <!-- −2 -->
      <defs>
       <path d="M 19.1875 8.296875 
L 53.609375 8.296875 
L 53.609375 0 
L 7.328125 0 
L 7.328125 8.296875 
Q 12.9375 14.109375 22.625 23.890625 
Q 32.328125 33.6875 34.8125 36.53125 
Q 39.546875 41.84375 41.421875 45.53125 
Q 43.3125 49.21875 43.3125 52.78125 
Q 43.3125 58.59375 39.234375 62.25 
Q 35.15625 65.921875 28.609375 65.921875 
Q 23.96875 65.921875 18.8125 64.3125 
Q 13.671875 62.703125 7.8125 59.421875 
L 7.8125 69.390625 
Q 13.765625 71.78125 18.9375 73 
Q 24.125 74.21875 28.421875 74.21875 
Q 39.75 74.21875 46.484375 68.546875 
Q 53.21875 62.890625 53.21875 53.421875 
Q 53.21875 48.921875 51.53125 44.890625 
Q 49.859375 40.875 45.40625 35.40625 
Q 44.1875 33.984375 37.640625 27.21875 
Q 31.109375 20.453125 19.1875 8.296875 
z
" id="DejaVuSans-32"/>
      </defs>
      <g transform="translate(141.759304 252.680187)scale(0.1 -0.1)">
       <use xlink:href="#DejaVuSans-2212"/>
       <use x="83.789062" xlink:href="#DejaVuSans-32"/>
      </g>
     </g>
    </g>
    <g id="xtick_3">
     <g id="line2d_5">
      <path clip-path="url(#p6283a4b3ae)" d="M 210.003125 241.58175 
L 210.003125 24.14175 
" style="fill:none;stroke:#b2b2b2;stroke-dasharray:1.85,0.8;stroke-dashoffset:0;stroke-width:0.5;"/>
     </g>
     <g id="line2d_6">
      <g>
       <use style="stroke:#000000;stroke-width:0.8;" x="210.003125" xlink:href="#mbfd981e3cf" y="241.58175"/>
      </g>
     </g>
     <g id="text_3">
      <!-- 0 -->
      <defs>
       <path d="M 31.78125 66.40625 
Q 24.171875 66.40625 20.328125 58.90625 
Q 16.5 51.421875 16.5 36.375 
Q 16.5 21.390625 20.328125 13.890625 
Q 24.171875 6.390625 31.78125 6.390625 
Q 39.453125 6.390625 43.28125 13.890625 
Q 47.125 21.390625 47.125 36.375 
Q 47.125 51.421875 43.28125 58.90625 
Q 39.453125 66.40625 31.78125 66.40625 
z
M 31.78125 74.21875 
Q 44.046875 74.21875 50.515625 64.515625 
Q 56.984375 54.828125 56.984375 36.375 
Q 56.984375 17.96875 50.515625 8.265625 
Q 44.046875 -1.421875 31.78125 -1.421875 
Q 19.53125 -1.421875 13.0625 8.265625 
Q 6.59375 17.96875 6.59375 36.375 
Q 6.59375 54.828125 13.0625 64.515625 
Q 19.53125 74.21875 31.78125 74.21875 
z
" id="DejaVuSans-30"/>
      </defs>
      <g transform="translate(206.821875 252.680187)scale(0.1 -0.1)">
       <use xlink:href="#DejaVuSans-30"/>
      </g>
     </g>
    </g>
    <g id="xtick_4">
     <g id="line2d_7">
      <path clip-path="url(#p6283a4b3ae)" d="M 270.875852 241.58175 
L 270.875852 24.14175 
" style="fill:none;stroke:#b2b2b2;stroke-dasharray:1.85,0.8;stroke-dashoffset:0;stroke-width:0.5;"/>
     </g>
     <g id="line2d_8">
      <g>
       <use style="stroke:#000000;stroke-width:0.8;" x="270.875852" xlink:href="#mbfd981e3cf" y="241.58175"/>
      </g>
     </g>
     <g id="text_4">
      <!-- 2 -->
      <g transform="translate(267.694602 252.680187)scale(0.1 -0.1)">
       <use xlink:href="#DejaVuSans-32"/>
      </g>
     </g>
    </g>
    <g id="xtick_5">
     <g id="line2d_9">
      <path clip-path="url(#p6283a4b3ae)" d="M 331.74858 241.58175 
L 331.74858 24.14175 
" style="fill:none;stroke:#b2b2b2;stroke-dasharray:1.85,0.8;stroke-dashoffset:0;stroke-width:0.5;"/>
     </g>
     <g id="line2d_10">
      <g>
       <use style="stroke:#000000;stroke-width:0.8;" x="331.74858" xlink:href="#mbfd981e3cf" y="241.58175"/>
      </g>
     </g>
     <g id="text_5">
      <!-- 4 -->
      <g transform="translate(328.56733 252.680187)scale(0.1 -0.1)">
       <use xlink:href="#DejaVuSans-34"/>
      </g>
     </g>
    </g>
    <g id="text_6">
     <!-- $x$ -->
     <defs>
      <path d="M 7.8125 2.875 
Q 9.578125 1.515625 12.796875 1.515625 
Q 15.921875 1.515625 18.3125 4.515625 
Q 20.703125 7.515625 21.578125 11.078125 
L 26.125 28.8125 
Q 27.203125 33.640625 27.203125 35.40625 
Q 27.203125 37.890625 25.8125 39.75 
Q 24.421875 41.609375 21.921875 41.609375 
Q 18.75 41.609375 15.96875 39.625 
Q 13.1875 37.640625 11.28125 34.59375 
Q 9.375 31.546875 8.59375 28.421875 
Q 8.40625 27.78125 7.8125 27.78125 
L 6.59375 27.78125 
Q 5.8125 27.78125 5.8125 28.71875 
L 5.8125 29 
Q 6.78125 32.71875 9.125 36.25 
Q 11.46875 39.796875 14.859375 41.984375 
Q 18.265625 44.1875 22.125 44.1875 
Q 25.78125 44.1875 28.734375 42.234375 
Q 31.6875 40.28125 32.90625 36.921875 
Q 34.625 39.984375 37.28125 42.078125 
Q 39.9375 44.1875 43.109375 44.1875 
Q 45.265625 44.1875 47.5 43.421875 
Q 49.75 42.671875 51.171875 41.109375 
Q 52.59375 39.546875 52.59375 37.203125 
Q 52.59375 34.671875 50.953125 32.828125 
Q 49.3125 31 46.78125 31 
Q 45.171875 31 44.09375 32.03125 
Q 43.015625 33.0625 43.015625 34.625 
Q 43.015625 36.71875 44.453125 38.296875 
Q 45.90625 39.890625 47.90625 40.1875 
Q 46.09375 41.609375 42.921875 41.609375 
Q 39.703125 41.609375 37.328125 38.625 
Q 34.96875 35.640625 33.984375 31.984375 
L 29.59375 14.3125 
Q 28.515625 10.296875 28.515625 7.71875 
Q 28.515625 5.171875 29.953125 3.34375 
Q 31.390625 1.515625 33.796875 1.515625 
Q 38.484375 1.515625 42.15625 5.640625 
Q 45.84375 9.765625 47.015625 14.703125 
Q 47.21875 15.28125 47.796875 15.28125 
L 49.03125 15.28125 
Q 49.421875 15.28125 49.65625 15.015625 
Q 49.90625 14.75 49.90625 14.40625 
Q 49.90625 14.3125 49.8125 14.109375 
Q 48.390625 8.15625 43.84375 3.515625 
Q 39.3125 -1.125 33.59375 -1.125 
Q 29.9375 -1.125 26.984375 0.84375 
Q 24.03125 2.828125 22.796875 6.203125 
Q 21.234375 3.265625 18.46875 1.0625 
Q 15.71875 -1.125 12.59375 -1.125 
Q 10.453125 -1.125 8.171875 -0.359375 
Q 5.90625 0.390625 4.484375 1.953125 
Q 3.078125 3.515625 3.078125 5.90625 
Q 3.078125 8.25 4.703125 10.171875 
Q 6.34375 12.109375 8.796875 12.109375 
Q 10.453125 12.109375 11.578125 11.109375 
Q 12.703125 10.109375 12.703125 8.5 
Q 12.703125 6.390625 11.296875 4.828125 
Q 9.90625 3.265625 7.8125 2.875 
z
" id="Cmmi10-78"/>
     </defs>
     <g transform="translate(206.523125 267.878)scale(0.12 -0.12)">
      <use transform="translate(0 0.8125)" xlink:href="#Cmmi10-78"/>
     </g>
    </g>
   </g>
   <g id="matplotlib.axis_2">
    <g id="ytick_1">
     <g id="line2d_11">
      <path clip-path="url(#p6283a4b3ae)" d="M 42.603125 233.039055 
L 377.403125 233.039055 
" style="fill:none;stroke:#b2b2b2;stroke-dasharray:1.85,0.8;stroke-dashoffset:0;stroke-width:0.5;"/>
     </g>
     <g id="line2d_12">
      <defs>
       <path d="M 0 0 
L 3.5 0 
" id="mf75ee07c0a" style="stroke:#000000;stroke-width:0.8;"/>
      </defs>
      <g>
       <use style="stroke:#000000;stroke-width:0.8;" x="42.603125" xlink:href="#mf75ee07c0a" y="233.039055"/>
      </g>
     </g>
     <g id="text_7">
      <!-- 0.0 -->
      <defs>
       <path d="M 10.6875 12.40625 
L 21 12.40625 
L 21 0 
L 10.6875 0 
z
" id="DejaVuSans-2e"/>
      </defs>
      <g transform="translate(23.2 236.838274)scale(0.1 -0.1)">
       <use xlink:href="#DejaVuSans-30"/>
       <use x="63.623047" xlink:href="#DejaVuSans-2e"/>
       <use x="95.410156" xlink:href="#DejaVuSans-30"/>
      </g>
     </g>
    </g>
    <g id="ytick_2">
     <g id="line2d_13">
      <path clip-path="url(#p6283a4b3ae)" d="M 42.603125 192.968134 
L 377.403125 192.968134 
" style="fill:none;stroke:#b2b2b2;stroke-dasharray:1.85,0.8;stroke-dashoffset:0;stroke-width:0.5;"/>
     </g>
     <g id="line2d_14">
      <g>
       <use style="stroke:#000000;stroke-width:0.8;" x="42.603125" xlink:href="#mf75ee07c0a" y="192.968134"/>
      </g>
     </g>
     <g id="text_8">
      <!-- 0.2 -->
      <g transform="translate(23.2 196.767353)scale(0.1 -0.1)">
       <use xlink:href="#DejaVuSans-30"/>
       <use x="63.623047" xlink:href="#DejaVuSans-2e"/>
       <use x="95.410156" xlink:href="#DejaVuSans-32"/>
      </g>
     </g>
    </g>
    <g id="ytick_3">
     <g id="line2d_15">
      <path clip-path="url(#p6283a4b3ae)" d="M 42.603125 152.897212 
L 377.403125 152.897212 
" style="fill:none;stroke:#b2b2b2;stroke-dasharray:1.85,0.8;stroke-dashoffset:0;stroke-width:0.5;"/>
     </g>
     <g id="line2d_16">
      <g>
       <use style="stroke:#000000;stroke-width:0.8;" x="42.603125" xlink:href="#mf75ee07c0a" y="152.897212"/>
      </g>
     </g>
     <g id="text_9">
      <!-- 0.4 -->
      <g transform="translate(23.2 156.696431)scale(0.1 -0.1)">
       <use xlink:href="#DejaVuSans-30"/>
       <use x="63.623047" xlink:href="#DejaVuSans-2e"/>
       <use x="95.410156" xlink:href="#DejaVuSans-34"/>
      </g>
     </g>
    </g>
    <g id="ytick_4">
     <g id="line2d_17">
      <path clip-path="url(#p6283a4b3ae)" d="M 42.603125 112.826291 
L 377.403125 112.826291 
" style="fill:none;stroke:#b2b2b2;stroke-dasharray:1.85,0.8;stroke-dashoffset:0;stroke-width:0.5;"/>
     </g>
     <g id="line2d_18">
      <g>
       <use style="stroke:#000000;stroke-width:0.8;" x="42.603125" xlink:href="#mf75ee07c0a" y="112.826291"/>
      </g>
     </g>
     <g id="text_10">
      <!-- 0.6 -->
      <defs>
       <path d="M 33.015625 40.375 
Q 26.375 40.375 22.484375 35.828125 
Q 18.609375 31.296875 18.609375 23.390625 
Q 18.609375 15.53125 22.484375 10.953125 
Q 26.375 6.390625 33.015625 6.390625 
Q 39.65625 6.390625 43.53125 10.953125 
Q 47.40625 15.53125 47.40625 23.390625 
Q 47.40625 31.296875 43.53125 35.828125 
Q 39.65625 40.375 33.015625 40.375 
z
M 52.59375 71.296875 
L 52.59375 62.3125 
Q 48.875 64.0625 45.09375 64.984375 
Q 41.3125 65.921875 37.59375 65.921875 
Q 27.828125 65.921875 22.671875 59.328125 
Q 17.53125 52.734375 16.796875 39.40625 
Q 19.671875 43.65625 24.015625 45.921875 
Q 28.375 48.1875 33.59375 48.1875 
Q 44.578125 48.1875 50.953125 41.515625 
Q 57.328125 34.859375 57.328125 23.390625 
Q 57.328125 12.15625 50.6875 5.359375 
Q 44.046875 -1.421875 33.015625 -1.421875 
Q 20.359375 -1.421875 13.671875 8.265625 
Q 6.984375 17.96875 6.984375 36.375 
Q 6.984375 53.65625 15.1875 63.9375 
Q 23.390625 74.21875 37.203125 74.21875 
Q 40.921875 74.21875 44.703125 73.484375 
Q 48.484375 72.75 52.59375 71.296875 
z
" id="DejaVuSans-36"/>
      </defs>
      <g transform="translate(23.2 116.62551)scale(0.1 -0.1)">
       <use xlink:href="#DejaVuSans-30"/>
       <use x="63.623047" xlink:href="#DejaVuSans-2e"/>
       <use x="95.410156" xlink:href="#DejaVuSans-36"/>
      </g>
     </g>
    </g>
    <g id="ytick_5">
     <g id="line2d_19">
      <path clip-path="url(#p6283a4b3ae)" d="M 42.603125 72.755369 
L 377.403125 72.755369 
" style="fill:none;stroke:#b2b2b2;stroke-dasharray:1.85,0.8;stroke-dashoffset:0;stroke-width:0.5;"/>
     </g>
     <g id="line2d_20">
      <g>
       <use style="stroke:#000000;stroke-width:0.8;" x="42.603125" xlink:href="#mf75ee07c0a" y="72.755369"/>
      </g>
     </g>
     <g id="text_11">
      <!-- 0.8 -->
      <defs>
       <path d="M 31.78125 34.625 
Q 24.75 34.625 20.71875 30.859375 
Q 16.703125 27.09375 16.703125 20.515625 
Q 16.703125 13.921875 20.71875 10.15625 
Q 24.75 6.390625 31.78125 6.390625 
Q 38.8125 6.390625 42.859375 10.171875 
Q 46.921875 13.96875 46.921875 20.515625 
Q 46.921875 27.09375 42.890625 30.859375 
Q 38.875 34.625 31.78125 34.625 
z
M 21.921875 38.8125 
Q 15.578125 40.375 12.03125 44.71875 
Q 8.5 49.078125 8.5 55.328125 
Q 8.5 64.0625 14.71875 69.140625 
Q 20.953125 74.21875 31.78125 74.21875 
Q 42.671875 74.21875 48.875 69.140625 
Q 55.078125 64.0625 55.078125 55.328125 
Q 55.078125 49.078125 51.53125 44.71875 
Q 48 40.375 41.703125 38.8125 
Q 48.828125 37.15625 52.796875 32.3125 
Q 56.78125 27.484375 56.78125 20.515625 
Q 56.78125 9.90625 50.3125 4.234375 
Q 43.84375 -1.421875 31.78125 -1.421875 
Q 19.734375 -1.421875 13.25 4.234375 
Q 6.78125 9.90625 6.78125 20.515625 
Q 6.78125 27.484375 10.78125 32.3125 
Q 14.796875 37.15625 21.921875 38.8125 
z
M 18.3125 54.390625 
Q 18.3125 48.734375 21.84375 45.5625 
Q 25.390625 42.390625 31.78125 42.390625 
Q 38.140625 42.390625 41.71875 45.5625 
Q 45.3125 48.734375 45.3125 54.390625 
Q 45.3125 60.0625 41.71875 63.234375 
Q 38.140625 66.40625 31.78125 66.40625 
Q 25.390625 66.40625 21.84375 63.234375 
Q 18.3125 60.0625 18.3125 54.390625 
z
" id="DejaVuSans-38"/>
      </defs>
      <g transform="translate(23.2 76.554588)scale(0.1 -0.1)">
       <use xlink:href="#DejaVuSans-30"/>
       <use x="63.623047" xlink:href="#DejaVuSans-2e"/>
       <use x="95.410156" xlink:href="#DejaVuSans-38"/>
      </g>
     </g>
    </g>
    <g id="ytick_6">
     <g id="line2d_21">
      <path clip-path="url(#p6283a4b3ae)" d="M 42.603125 32.684448 
L 377.403125 32.684448 
" style="fill:none;stroke:#b2b2b2;stroke-dasharray:1.85,0.8;stroke-dashoffset:0;stroke-width:0.5;"/>
     </g>
     <g id="line2d_22">
      <g>
       <use style="stroke:#000000;stroke-width:0.8;" x="42.603125" xlink:href="#mf75ee07c0a" y="32.684448"/>
      </g>
     </g>
     <g id="text_12">
      <!-- 1.0 -->
      <defs>
       <path d="M 12.40625 8.296875 
L 28.515625 8.296875 
L 28.515625 63.921875 
L 10.984375 60.40625 
L 10.984375 69.390625 
L 28.421875 72.90625 
L 38.28125 72.90625 
L 38.28125 8.296875 
L 54.390625 8.296875 
L 54.390625 0 
L 12.40625 0 
z
" id="DejaVuSans-31"/>
      </defs>
      <g transform="translate(23.2 36.483666)scale(0.1 -0.1)">
       <use xlink:href="#DejaVuSans-31"/>
       <use x="63.623047" xlink:href="#DejaVuSans-2e"/>
       <use x="95.410156" xlink:href="#DejaVuSans-30"/>
      </g>
     </g>
    </g>
    <g id="text_13">
     <!-- $f(x)$ -->
     <defs>
      <path d="M 9.71875 -16.5 
Q 11.578125 -17.921875 14.203125 -17.921875 
Q 17.78125 -17.921875 20.015625 -10.015625 
Q 20.953125 -6.203125 25.09375 15.09375 
L 29.6875 39.59375 
L 21.09375 39.59375 
Q 20.125 39.59375 20.125 40.921875 
Q 20.515625 43.109375 21.390625 43.109375 
L 30.328125 43.109375 
L 31.5 49.609375 
Q 32.078125 52.640625 32.5625 54.8125 
Q 33.0625 56.984375 33.625 58.828125 
Q 34.1875 60.6875 35.296875 62.984375 
Q 37.015625 66.265625 39.921875 68.390625 
Q 42.828125 70.515625 46.1875 70.515625 
Q 48.390625 70.515625 50.46875 69.703125 
Q 52.546875 68.890625 53.859375 67.28125 
Q 55.171875 65.671875 55.171875 63.484375 
Q 55.171875 60.9375 53.484375 59.046875 
Q 51.8125 57.171875 49.421875 57.171875 
Q 47.796875 57.171875 46.65625 58.171875 
Q 45.515625 59.1875 45.515625 60.796875 
Q 45.515625 62.984375 47 64.625 
Q 48.484375 66.265625 50.6875 66.5 
Q 48.828125 67.921875 46.09375 67.921875 
Q 44.578125 67.921875 43.234375 66.5 
Q 41.890625 65.09375 41.5 63.484375 
Q 40.875 60.9375 38.71875 49.703125 
L 37.5 43.109375 
L 47.796875 43.109375 
Q 48.78125 43.109375 48.78125 41.796875 
Q 48.734375 41.546875 48.578125 40.9375 
Q 48.4375 40.328125 48.171875 39.953125 
Q 47.90625 39.59375 47.515625 39.59375 
L 36.8125 39.59375 
L 32.171875 15.1875 
Q 31.296875 9.859375 30.140625 4.359375 
Q 29 -1.125 26.921875 -6.90625 
Q 24.859375 -12.703125 21.625 -16.609375 
Q 18.40625 -20.515625 14.015625 -20.515625 
Q 10.640625 -20.515625 7.984375 -18.578125 
Q 5.328125 -16.65625 5.328125 -13.484375 
Q 5.328125 -10.9375 6.953125 -9.046875 
Q 8.59375 -7.171875 11.078125 -7.171875 
Q 12.75 -7.171875 13.859375 -8.171875 
Q 14.984375 -9.1875 14.984375 -10.796875 
Q 14.984375 -12.9375 13.390625 -14.71875 
Q 11.8125 -16.5 9.71875 -16.5 
z
" id="Cmmi10-66"/>
      <path d="M 31 -24.8125 
Q 25.4375 -20.40625 21.40625 -14.71875 
Q 17.390625 -9.03125 14.8125 -2.578125 
Q 12.25 3.859375 10.984375 10.890625 
Q 9.71875 17.921875 9.71875 25 
Q 9.71875 32.171875 10.984375 39.203125 
Q 12.25 46.234375 14.859375 52.734375 
Q 17.484375 59.234375 21.53125 64.890625 
Q 25.59375 70.5625 31 74.8125 
Q 31 75 31.5 75 
L 32.421875 75 
Q 32.71875 75 32.953125 74.734375 
Q 33.203125 74.46875 33.203125 74.125 
Q 33.203125 73.6875 33.015625 73.484375 
Q 28.125 68.703125 24.875 63.234375 
Q 21.625 57.765625 19.640625 51.578125 
Q 17.671875 45.40625 16.796875 38.78125 
Q 15.921875 32.171875 15.921875 25 
Q 15.921875 -6.78125 32.90625 -23.296875 
Q 33.203125 -23.578125 33.203125 -24.125 
Q 33.203125 -24.359375 32.9375 -24.671875 
Q 32.671875 -25 32.421875 -25 
L 31.5 -25 
Q 31 -25 31 -24.8125 
z
" id="Cmr10-28"/>
      <path d="M 6.5 -25 
Q 5.609375 -25 5.609375 -24.125 
Q 5.609375 -23.6875 5.8125 -23.484375 
Q 22.90625 -6.78125 22.90625 25 
Q 22.90625 56.78125 6 73.296875 
Q 5.609375 73.53125 5.609375 74.125 
Q 5.609375 74.46875 5.875 74.734375 
Q 6.15625 75 6.5 75 
L 7.421875 75 
Q 7.71875 75 7.90625 74.8125 
Q 15.09375 69.140625 19.875 61.03125 
Q 24.65625 52.9375 26.875 43.75 
Q 29.109375 34.578125 29.109375 25 
Q 29.109375 17.921875 27.90625 11.0625 
Q 26.703125 4.203125 24.09375 -2.453125 
Q 21.484375 -9.125 17.484375 -14.765625 
Q 13.484375 -20.40625 7.90625 -24.8125 
Q 7.71875 -25 7.421875 -25 
z
" id="Cmr10-29"/>
     </defs>
     <g transform="translate(16.2 143.90175)rotate(-90)scale(0.12 -0.12)">
      <use xlink:href="#Cmmi10-66"/>
      <use transform="translate(48.876953 0)" xlink:href="#Cmr10-28"/>
      <use transform="translate(87.695312 0)" xlink:href="#Cmmi10-78"/>
      <use transform="translate(144.775391 0)" xlink:href="#Cmr10-29"/>
     </g>
    </g>
   </g>
   <g id="line2d_23">
    <path clip-path="url(#p6283a4b3ae)" d="M 57.821307 231.698114 
L 60.895694 231.556623 
L 63.970066 231.400366 
L 67.044453 231.227761 
L 70.118825 231.037177 
L 73.193212 230.826747 
L 76.267585 230.594475 
L 79.341972 230.33815 
L 82.416344 230.055353 
L 85.490731 229.743436 
L 88.565103 229.399515 
L 91.63949 229.020434 
L 94.71387 228.602762 
L 97.78825 228.142761 
L 100.862629 227.636379 
L 103.937009 227.079222 
L 107.011389 226.466544 
L 110.085768 225.793231 
L 113.160148 225.053783 
L 116.234527 224.242311 
L 119.308907 223.352528 
L 122.383287 222.377753 
L 125.457666 221.310919 
L 128.532046 220.144587 
L 131.606433 218.870976 
L 134.680813 217.482012 
L 137.755192 215.969363 
L 140.829572 214.324532 
L 143.903952 212.538932 
L 146.978331 210.604006 
L 150.052711 208.511357 
L 153.127091 206.252902 
L 156.20147 203.821046 
L 159.27585 201.208902 
L 162.35023 198.410476 
L 165.424609 195.420941 
L 168.498989 192.236858 
L 171.573368 188.856435 
L 174.647748 185.279784 
L 177.722128 181.509128 
L 180.796507 177.549031 
L 183.870894 173.406532 
L 186.945267 169.09132 
L 190.019654 164.615649 
L 193.094026 159.9945 
L 196.168413 155.245254 
L 199.242785 150.387712 
L 202.317172 145.443613 
L 205.391559 140.436448 
L 208.465932 135.39095 
L 211.540318 130.332553 
L 214.614691 125.287055 
L 217.689078 120.27989 
L 220.76345 115.335815 
L 223.837837 110.478249 
L 226.912209 105.729033 
L 229.986596 101.107848 
L 233.060969 96.632201 
L 236.135356 92.316971 
L 239.209728 88.174496 
L 242.284115 84.214387 
L 245.358487 80.44374 
L 248.432874 76.86708 
L 251.507247 73.486663 
L 254.581634 70.302574 
L 257.65602 67.313021 
L 260.730393 64.514613 
L 263.80478 61.902454 
L 266.879152 59.470607 
L 269.953539 57.212148 
L 273.027911 55.119504 
L 276.102298 53.184567 
L 279.176671 51.398978 
L 282.251058 49.754137 
L 285.32543 48.241495 
L 288.399817 46.852526 
L 291.474189 45.578916 
L 294.548576 44.412583 
L 297.622949 43.34575 
L 300.697336 42.370979 
L 303.771708 41.4812 
L 306.846095 40.669725 
L 309.920482 39.930272 
L 312.994869 39.256954 
L 316.069227 38.644279 
L 319.143614 38.087122 
L 322.218 37.580742 
L 325.292387 37.120746 
L 328.366745 36.703072 
L 331.441132 36.323995 
L 334.515519 35.980064 
L 337.589906 35.668149 
L 340.664264 35.385349 
L 343.738651 35.129024 
L 346.813038 34.896751 
L 349.887425 34.686332 
L 352.961811 34.495737 
L 356.036169 34.323138 
L 359.110556 34.166876 
L 362.184943 34.025386 
" style="fill:none;stroke:#348abd;stroke-linecap:square;stroke-width:2;"/>
   </g>
   <g id="patch_3">
    <path d="M 42.603125 241.58175 
L 42.603125 24.14175 
" style="fill:none;stroke:#bcbcbc;stroke-linecap:square;stroke-linejoin:miter;stroke-width:0.8;"/>
   </g>
   <g id="patch_4">
    <path d="M 377.403125 241.58175 
L 377.403125 24.14175 
" style="fill:none;stroke:#bcbcbc;stroke-linecap:square;stroke-linejoin:miter;stroke-width:0.8;"/>
   </g>
   <g id="patch_5">
    <path d="M 42.603125 241.58175 
L 377.403125 241.58175 
" style="fill:none;stroke:#bcbcbc;stroke-linecap:square;stroke-linejoin:miter;stroke-width:0.8;"/>
   </g>
   <g id="patch_6">
    <path d="M 42.603125 24.14175 
L 377.403125 24.14175 
" style="fill:none;stroke:#bcbcbc;stroke-linecap:square;stroke-linejoin:miter;stroke-width:0.8;"/>
   </g>
   <g id="text_14">
    <!-- The Sigmoid Function in Optimization Form -->
    <defs>
     <path d="M -0.296875 72.90625 
L 61.375 72.90625 
L 61.375 64.59375 
L 35.5 64.59375 
L 35.5 0 
L 25.59375 0 
L 25.59375 64.59375 
L -0.296875 64.59375 
z
" id="DejaVuSans-54"/>
     <path d="M 54.890625 33.015625 
L 54.890625 0 
L 45.90625 0 
L 45.90625 32.71875 
Q 45.90625 40.484375 42.875 44.328125 
Q 39.84375 48.1875 33.796875 48.1875 
Q 26.515625 48.1875 22.3125 43.546875 
Q 18.109375 38.921875 18.109375 30.90625 
L 18.109375 0 
L 9.078125 0 
L 9.078125 75.984375 
L 18.109375 75.984375 
L 18.109375 46.1875 
Q 21.34375 51.125 25.703125 53.5625 
Q 30.078125 56 35.796875 56 
Q 45.21875 56 50.046875 50.171875 
Q 54.890625 44.34375 54.890625 33.015625 
z
" id="DejaVuSans-68"/>
     <path d="M 56.203125 29.59375 
L 56.203125 25.203125 
L 14.890625 25.203125 
Q 15.484375 15.921875 20.484375 11.0625 
Q 25.484375 6.203125 34.421875 6.203125 
Q 39.59375 6.203125 44.453125 7.46875 
Q 49.3125 8.734375 54.109375 11.28125 
L 54.109375 2.78125 
Q 49.265625 0.734375 44.1875 -0.34375 
Q 39.109375 -1.421875 33.890625 -1.421875 
Q 20.796875 -1.421875 13.15625 6.1875 
Q 5.515625 13.8125 5.515625 26.8125 
Q 5.515625 40.234375 12.765625 48.109375 
Q 20.015625 56 32.328125 56 
Q 43.359375 56 49.78125 48.890625 
Q 56.203125 41.796875 56.203125 29.59375 
z
M 47.21875 32.234375 
Q 47.125 39.59375 43.09375 43.984375 
Q 39.0625 48.390625 32.421875 48.390625 
Q 24.90625 48.390625 20.390625 44.140625 
Q 15.875 39.890625 15.1875 32.171875 
z
" id="DejaVuSans-65"/>
     <path id="DejaVuSans-20"/>
     <path d="M 53.515625 70.515625 
L 53.515625 60.890625 
Q 47.90625 63.578125 42.921875 64.890625 
Q 37.9375 66.21875 33.296875 66.21875 
Q 25.25 66.21875 20.875 63.09375 
Q 16.5 59.96875 16.5 54.203125 
Q 16.5 49.359375 19.40625 46.890625 
Q 22.3125 44.4375 30.421875 42.921875 
L 36.375 41.703125 
Q 47.40625 39.59375 52.65625 34.296875 
Q 57.90625 29 57.90625 20.125 
Q 57.90625 9.515625 50.796875 4.046875 
Q 43.703125 -1.421875 29.984375 -1.421875 
Q 24.8125 -1.421875 18.96875 -0.25 
Q 13.140625 0.921875 6.890625 3.21875 
L 6.890625 13.375 
Q 12.890625 10.015625 18.65625 8.296875 
Q 24.421875 6.59375 29.984375 6.59375 
Q 38.421875 6.59375 43.015625 9.90625 
Q 47.609375 13.234375 47.609375 19.390625 
Q 47.609375 24.75 44.3125 27.78125 
Q 41.015625 30.8125 33.5 32.328125 
L 27.484375 33.5 
Q 16.453125 35.6875 11.515625 40.375 
Q 6.59375 45.0625 6.59375 53.421875 
Q 6.59375 63.09375 13.40625 68.65625 
Q 20.21875 74.21875 32.171875 74.21875 
Q 37.3125 74.21875 42.625 73.28125 
Q 47.953125 72.359375 53.515625 70.515625 
z
" id="DejaVuSans-53"/>
     <path d="M 9.421875 54.6875 
L 18.40625 54.6875 
L 18.40625 0 
L 9.421875 0 
z
M 9.421875 75.984375 
L 18.40625 75.984375 
L 18.40625 64.59375 
L 9.421875 64.59375 
z
" id="DejaVuSans-69"/>
     <path d="M 45.40625 27.984375 
Q 45.40625 37.75 41.375 43.109375 
Q 37.359375 48.484375 30.078125 48.484375 
Q 22.859375 48.484375 18.828125 43.109375 
Q 14.796875 37.75 14.796875 27.984375 
Q 14.796875 18.265625 18.828125 12.890625 
Q 22.859375 7.515625 30.078125 7.515625 
Q 37.359375 7.515625 41.375 12.890625 
Q 45.40625 18.265625 45.40625 27.984375 
z
M 54.390625 6.78125 
Q 54.390625 -7.171875 48.1875 -13.984375 
Q 42 -20.796875 29.203125 -20.796875 
Q 24.46875 -20.796875 20.265625 -20.09375 
Q 16.0625 -19.390625 12.109375 -17.921875 
L 12.109375 -9.1875 
Q 16.0625 -11.328125 19.921875 -12.34375 
Q 23.78125 -13.375 27.78125 -13.375 
Q 36.625 -13.375 41.015625 -8.765625 
Q 45.40625 -4.15625 45.40625 5.171875 
L 45.40625 9.625 
Q 42.625 4.78125 38.28125 2.390625 
Q 33.9375 0 27.875 0 
Q 17.828125 0 11.671875 7.65625 
Q 5.515625 15.328125 5.515625 27.984375 
Q 5.515625 40.671875 11.671875 48.328125 
Q 17.828125 56 27.875 56 
Q 33.9375 56 38.28125 53.609375 
Q 42.625 51.21875 45.40625 46.390625 
L 45.40625 54.6875 
L 54.390625 54.6875 
z
" id="DejaVuSans-67"/>
     <path d="M 52 44.1875 
Q 55.375 50.25 60.0625 53.125 
Q 64.75 56 71.09375 56 
Q 79.640625 56 84.28125 50.015625 
Q 88.921875 44.046875 88.921875 33.015625 
L 88.921875 0 
L 79.890625 0 
L 79.890625 32.71875 
Q 79.890625 40.578125 77.09375 44.375 
Q 74.3125 48.1875 68.609375 48.1875 
Q 61.625 48.1875 57.5625 43.546875 
Q 53.515625 38.921875 53.515625 30.90625 
L 53.515625 0 
L 44.484375 0 
L 44.484375 32.71875 
Q 44.484375 40.625 41.703125 44.40625 
Q 38.921875 48.1875 33.109375 48.1875 
Q 26.21875 48.1875 22.15625 43.53125 
Q 18.109375 38.875 18.109375 30.90625 
L 18.109375 0 
L 9.078125 0 
L 9.078125 54.6875 
L 18.109375 54.6875 
L 18.109375 46.1875 
Q 21.1875 51.21875 25.484375 53.609375 
Q 29.78125 56 35.6875 56 
Q 41.65625 56 45.828125 52.96875 
Q 50 49.953125 52 44.1875 
z
" id="DejaVuSans-6d"/>
     <path d="M 30.609375 48.390625 
Q 23.390625 48.390625 19.1875 42.75 
Q 14.984375 37.109375 14.984375 27.296875 
Q 14.984375 17.484375 19.15625 11.84375 
Q 23.34375 6.203125 30.609375 6.203125 
Q 37.796875 6.203125 41.984375 11.859375 
Q 46.1875 17.53125 46.1875 27.296875 
Q 46.1875 37.015625 41.984375 42.703125 
Q 37.796875 48.390625 30.609375 48.390625 
z
M 30.609375 56 
Q 42.328125 56 49.015625 48.375 
Q 55.71875 40.765625 55.71875 27.296875 
Q 55.71875 13.875 49.015625 6.21875 
Q 42.328125 -1.421875 30.609375 -1.421875 
Q 18.84375 -1.421875 12.171875 6.21875 
Q 5.515625 13.875 5.515625 27.296875 
Q 5.515625 40.765625 12.171875 48.375 
Q 18.84375 56 30.609375 56 
z
" id="DejaVuSans-6f"/>
     <path d="M 45.40625 46.390625 
L 45.40625 75.984375 
L 54.390625 75.984375 
L 54.390625 0 
L 45.40625 0 
L 45.40625 8.203125 
Q 42.578125 3.328125 38.25 0.953125 
Q 33.9375 -1.421875 27.875 -1.421875 
Q 17.96875 -1.421875 11.734375 6.484375 
Q 5.515625 14.40625 5.515625 27.296875 
Q 5.515625 40.1875 11.734375 48.09375 
Q 17.96875 56 27.875 56 
Q 33.9375 56 38.25 53.625 
Q 42.578125 51.265625 45.40625 46.390625 
z
M 14.796875 27.296875 
Q 14.796875 17.390625 18.875 11.75 
Q 22.953125 6.109375 30.078125 6.109375 
Q 37.203125 6.109375 41.296875 11.75 
Q 45.40625 17.390625 45.40625 27.296875 
Q 45.40625 37.203125 41.296875 42.84375 
Q 37.203125 48.484375 30.078125 48.484375 
Q 22.953125 48.484375 18.875 42.84375 
Q 14.796875 37.203125 14.796875 27.296875 
z
" id="DejaVuSans-64"/>
     <path d="M 9.8125 72.90625 
L 51.703125 72.90625 
L 51.703125 64.59375 
L 19.671875 64.59375 
L 19.671875 43.109375 
L 48.578125 43.109375 
L 48.578125 34.8125 
L 19.671875 34.8125 
L 19.671875 0 
L 9.8125 0 
z
" id="DejaVuSans-46"/>
     <path d="M 8.5 21.578125 
L 8.5 54.6875 
L 17.484375 54.6875 
L 17.484375 21.921875 
Q 17.484375 14.15625 20.5 10.265625 
Q 23.53125 6.390625 29.59375 6.390625 
Q 36.859375 6.390625 41.078125 11.03125 
Q 45.3125 15.671875 45.3125 23.6875 
L 45.3125 54.6875 
L 54.296875 54.6875 
L 54.296875 0 
L 45.3125 0 
L 45.3125 8.40625 
Q 42.046875 3.421875 37.71875 1 
Q 33.40625 -1.421875 27.6875 -1.421875 
Q 18.265625 -1.421875 13.375 4.4375 
Q 8.5 10.296875 8.5 21.578125 
z
M 31.109375 56 
z
" id="DejaVuSans-75"/>
     <path d="M 54.890625 33.015625 
L 54.890625 0 
L 45.90625 0 
L 45.90625 32.71875 
Q 45.90625 40.484375 42.875 44.328125 
Q 39.84375 48.1875 33.796875 48.1875 
Q 26.515625 48.1875 22.3125 43.546875 
Q 18.109375 38.921875 18.109375 30.90625 
L 18.109375 0 
L 9.078125 0 
L 9.078125 54.6875 
L 18.109375 54.6875 
L 18.109375 46.1875 
Q 21.34375 51.125 25.703125 53.5625 
Q 30.078125 56 35.796875 56 
Q 45.21875 56 50.046875 50.171875 
Q 54.890625 44.34375 54.890625 33.015625 
z
" id="DejaVuSans-6e"/>
     <path d="M 48.78125 52.59375 
L 48.78125 44.1875 
Q 44.96875 46.296875 41.140625 47.34375 
Q 37.3125 48.390625 33.40625 48.390625 
Q 24.65625 48.390625 19.8125 42.84375 
Q 14.984375 37.3125 14.984375 27.296875 
Q 14.984375 17.28125 19.8125 11.734375 
Q 24.65625 6.203125 33.40625 6.203125 
Q 37.3125 6.203125 41.140625 7.25 
Q 44.96875 8.296875 48.78125 10.40625 
L 48.78125 2.09375 
Q 45.015625 0.34375 40.984375 -0.53125 
Q 36.96875 -1.421875 32.421875 -1.421875 
Q 20.0625 -1.421875 12.78125 6.34375 
Q 5.515625 14.109375 5.515625 27.296875 
Q 5.515625 40.671875 12.859375 48.328125 
Q 20.21875 56 33.015625 56 
Q 37.15625 56 41.109375 55.140625 
Q 45.0625 54.296875 48.78125 52.59375 
z
" id="DejaVuSans-63"/>
     <path d="M 18.3125 70.21875 
L 18.3125 54.6875 
L 36.8125 54.6875 
L 36.8125 47.703125 
L 18.3125 47.703125 
L 18.3125 18.015625 
Q 18.3125 11.328125 20.140625 9.421875 
Q 21.96875 7.515625 27.59375 7.515625 
L 36.8125 7.515625 
L 36.8125 0 
L 27.59375 0 
Q 17.1875 0 13.234375 3.875 
Q 9.28125 7.765625 9.28125 18.015625 
L 9.28125 47.703125 
L 2.6875 47.703125 
L 2.6875 54.6875 
L 9.28125 54.6875 
L 9.28125 70.21875 
z
" id="DejaVuSans-74"/>
     <path d="M 39.40625 66.21875 
Q 28.65625 66.21875 22.328125 58.203125 
Q 16.015625 50.203125 16.015625 36.375 
Q 16.015625 22.609375 22.328125 14.59375 
Q 28.65625 6.59375 39.40625 6.59375 
Q 50.140625 6.59375 56.421875 14.59375 
Q 62.703125 22.609375 62.703125 36.375 
Q 62.703125 50.203125 56.421875 58.203125 
Q 50.140625 66.21875 39.40625 66.21875 
z
M 39.40625 74.21875 
Q 54.734375 74.21875 63.90625 63.9375 
Q 73.09375 53.65625 73.09375 36.375 
Q 73.09375 19.140625 63.90625 8.859375 
Q 54.734375 -1.421875 39.40625 -1.421875 
Q 24.03125 -1.421875 14.8125 8.828125 
Q 5.609375 19.09375 5.609375 36.375 
Q 5.609375 53.65625 14.8125 63.9375 
Q 24.03125 74.21875 39.40625 74.21875 
z
" id="DejaVuSans-4f"/>
     <path d="M 18.109375 8.203125 
L 18.109375 -20.796875 
L 9.078125 -20.796875 
L 9.078125 54.6875 
L 18.109375 54.6875 
L 18.109375 46.390625 
Q 20.953125 51.265625 25.265625 53.625 
Q 29.59375 56 35.59375 56 
Q 45.5625 56 51.78125 48.09375 
Q 58.015625 40.1875 58.015625 27.296875 
Q 58.015625 14.40625 51.78125 6.484375 
Q 45.5625 -1.421875 35.59375 -1.421875 
Q 29.59375 -1.421875 25.265625 0.953125 
Q 20.953125 3.328125 18.109375 8.203125 
z
M 48.6875 27.296875 
Q 48.6875 37.203125 44.609375 42.84375 
Q 40.53125 48.484375 33.40625 48.484375 
Q 26.265625 48.484375 22.1875 42.84375 
Q 18.109375 37.203125 18.109375 27.296875 
Q 18.109375 17.390625 22.1875 11.75 
Q 26.265625 6.109375 33.40625 6.109375 
Q 40.53125 6.109375 44.609375 11.75 
Q 48.6875 17.390625 48.6875 27.296875 
z
" id="DejaVuSans-70"/>
     <path d="M 5.515625 54.6875 
L 48.1875 54.6875 
L 48.1875 46.484375 
L 14.40625 7.171875 
L 48.1875 7.171875 
L 48.1875 0 
L 4.296875 0 
L 4.296875 8.203125 
L 38.09375 47.515625 
L 5.515625 47.515625 
z
" id="DejaVuSans-7a"/>
     <path d="M 34.28125 27.484375 
Q 23.390625 27.484375 19.1875 25 
Q 14.984375 22.515625 14.984375 16.5 
Q 14.984375 11.71875 18.140625 8.90625 
Q 21.296875 6.109375 26.703125 6.109375 
Q 34.1875 6.109375 38.703125 11.40625 
Q 43.21875 16.703125 43.21875 25.484375 
L 43.21875 27.484375 
z
M 52.203125 31.203125 
L 52.203125 0 
L 43.21875 0 
L 43.21875 8.296875 
Q 40.140625 3.328125 35.546875 0.953125 
Q 30.953125 -1.421875 24.3125 -1.421875 
Q 15.921875 -1.421875 10.953125 3.296875 
Q 6 8.015625 6 15.921875 
Q 6 25.140625 12.171875 29.828125 
Q 18.359375 34.515625 30.609375 34.515625 
L 43.21875 34.515625 
L 43.21875 35.40625 
Q 43.21875 41.609375 39.140625 45 
Q 35.0625 48.390625 27.6875 48.390625 
Q 23 48.390625 18.546875 47.265625 
Q 14.109375 46.140625 10.015625 43.890625 
L 10.015625 52.203125 
Q 14.9375 54.109375 19.578125 55.046875 
Q 24.21875 56 28.609375 56 
Q 40.484375 56 46.34375 49.84375 
Q 52.203125 43.703125 52.203125 31.203125 
z
" id="DejaVuSans-61"/>
     <path d="M 41.109375 46.296875 
Q 39.59375 47.171875 37.8125 47.578125 
Q 36.03125 48 33.890625 48 
Q 26.265625 48 22.1875 43.046875 
Q 18.109375 38.09375 18.109375 28.8125 
L 18.109375 0 
L 9.078125 0 
L 9.078125 54.6875 
L 18.109375 54.6875 
L 18.109375 46.1875 
Q 20.953125 51.171875 25.484375 53.578125 
Q 30.03125 56 36.53125 56 
Q 37.453125 56 38.578125 55.875 
Q 39.703125 55.765625 41.0625 55.515625 
z
" id="DejaVuSans-72"/>
    </defs>
    <g transform="translate(53.891375 18.14175)scale(0.144 -0.144)">
     <use xlink:href="#DejaVuSans-54"/>
     <use x="61.083984" xlink:href="#DejaVuSans-68"/>
     <use x="124.462891" xlink:href="#DejaVuSans-65"/>
     <use x="185.986328" xlink:href="#DejaVuSans-20"/>
     <use x="217.773438" xlink:href="#DejaVuSans-53"/>
     <use x="281.25" xlink:href="#DejaVuSans-69"/>
     <use x="309.033203" xlink:href="#DejaVuSans-67"/>
     <use x="372.509766" xlink:href="#DejaVuSans-6d"/>
     <use x="469.921875" xlink:href="#DejaVuSans-6f"/>
     <use x="531.103516" xlink:href="#DejaVuSans-69"/>
     <use x="558.886719" xlink:href="#DejaVuSans-64"/>
     <use x="622.363281" xlink:href="#DejaVuSans-20"/>
     <use x="654.150391" xlink:href="#DejaVuSans-46"/>
     <use x="711.591797" xlink:href="#DejaVuSans-75"/>
     <use x="774.970703" xlink:href="#DejaVuSans-6e"/>
     <use x="838.349609" xlink:href="#DejaVuSans-63"/>
     <use x="893.330078" xlink:href="#DejaVuSans-74"/>
     <use x="932.539062" xlink:href="#DejaVuSans-69"/>
     <use x="960.322266" xlink:href="#DejaVuSans-6f"/>
     <use x="1021.503906" xlink:href="#DejaVuSans-6e"/>
     <use x="1084.882812" xlink:href="#DejaVuSans-20"/>
     <use x="1116.669922" xlink:href="#DejaVuSans-69"/>
     <use x="1144.453125" xlink:href="#DejaVuSans-6e"/>
     <use x="1207.832031" xlink:href="#DejaVuSans-20"/>
     <use x="1239.619141" xlink:href="#DejaVuSans-4f"/>
     <use x="1318.330078" xlink:href="#DejaVuSans-70"/>
     <use x="1381.806641" xlink:href="#DejaVuSans-74"/>
     <use x="1421.015625" xlink:href="#DejaVuSans-69"/>
     <use x="1448.798828" xlink:href="#DejaVuSans-6d"/>
     <use x="1546.210938" xlink:href="#DejaVuSans-69"/>
     <use x="1573.994141" xlink:href="#DejaVuSans-7a"/>
     <use x="1626.484375" xlink:href="#DejaVuSans-61"/>
     <use x="1687.763672" xlink:href="#DejaVuSans-74"/>
     <use x="1726.972656" xlink:href="#DejaVuSans-69"/>
     <use x="1754.755859" xlink:href="#DejaVuSans-6f"/>
     <use x="1815.9375" xlink:href="#DejaVuSans-6e"/>
     <use x="1879.316406" xlink:href="#DejaVuSans-20"/>
     <use x="1911.103516" xlink:href="#DejaVuSans-46"/>
     <use x="1968.576172" xlink:href="#DejaVuSans-6f"/>
     <use x="2029.757812" xlink:href="#DejaVuSans-72"/>
     <use x="2070.855469" xlink:href="#DejaVuSans-6d"/>
    </g>
   </g>
  </g>
 </g>
 <defs>
  <clipPath id="p6283a4b3ae">
   <rect height="217.44" width="334.8" x="42.603125" y="24.14175"/>
  </clipPath>
 </defs>
</svg>
